<svg xmlns="http://www.w3.org/2000/svg" viewBox="0 0 900 260" role="img" aria-labelledby="title desc"><title id="title">Previsão de chuva e vento</title><desc id="desc">Nuvem com chuva, gota de umidade e linhas indicando vento.</desc><rect width="900" height="260" rx="24" fill="#eaf5fb"/><circle cx="250" cy="105" r="52" fill="#fff"/><circle cx="320" cy="80" r="70" fill="#fff"/><circle cx="400" cy="110" r="48" fill="#fff"/><path d="M230 138h205" stroke="#8aa8b9" stroke-width="12" stroke-linecap="round"/><path d="M270 166l-14 32M325 166l-14 32M380 166l-14 32" stroke="#1e6fa8" stroke-width="10" stroke-linecap="round"/><path d="M560 85h175M600 125h170M555 165h135" stroke="#e5a83b" stroke-width="12" stroke-linecap="round"/><path d="M735 85l-25-18m25 18-25 18M770 125l-25-18m25 18-25 18M690 165l-25-18m25 18-25 18" stroke="#e5a83b" stroke-width="10" fill="none" stroke-linecap="round" stroke-linejoin="round"/><text x="450" y="235" text-anchor="middle" font-family="Arial" font-size="24" font-weight="700" fill="#17324d">chuva • umidade • ventos</text></svg>
